<svg width="20" height="20" viewBox="0 0 20 20" fill="none" xmlns="http://www.w3.org/2000/svg">
      <path d="M12.9073 13.625C10.7552 15.5047 7.537 16.097 4.82979 14.9898C1.5655 13.6548 -0.513869 9.89981 0.110644 6.40606C0.735528 2.9099 3.98537 0.0819505 7.61944 0.00134264C7.68632 0.000230803 7.7532 -0.000139803 7.82026 4.55028e-05C11.3919 0.0339564 14.759 2.79075 15.4206 6.35825C15.8641 8.74943 15.0993 11.3328 13.4403 13.1095L19.885 19.3765C20.0232 19.5225 19.9993 19.5711 19.9971 19.6524C19.9893 19.935 19.6062 20.1207 19.3683 19.908L12.9073 13.625ZM7.72448 0.741268C4.53652 0.771472 1.54512 3.1823 0.882069 6.321C0.394093 8.63157 1.16274 11.1697 2.85306 12.8202C4.79422 14.7155 7.86676 15.3519 10.4297 14.3036C13.3944 13.0913 15.2801 9.66465 14.6919 6.49333C14.1089 3.34926 11.1979 0.815575 7.90641 0.742379C7.84577 0.741453 7.78513 0.741083 7.72448 0.741268Z" fill="#6B6B6B"/>
    </svg>